<?xml version="1.0" encoding="utf-8" standalone="no"?>
<!DOCTYPE svg PUBLIC "-//W3C//DTD SVG 1.1//EN"
  "http://www.w3.org/Graphics/SVG/1.1/DTD/svg11.dtd">
<svg xmlns:xlink="http://www.w3.org/1999/xlink" width="460.8pt" height="345.6pt" viewBox="0 0 460.8 345.6" xmlns="http://www.w3.org/2000/svg" version="1.1">
 <metadata>
  <rdf:RDF xmlns:dc="http://purl.org/dc/elements/1.1/" xmlns:cc="http://creativecommons.org/ns#" xmlns:rdf="http://www.w3.org/1999/02/22-rdf-syntax-ns#">
   <cc:Work>
    <dc:type rdf:resource="http://purl.org/dc/dcmitype/StillImage"/>
    <dc:date>2024-06-13T13:23:16.354118</dc:date>
    <dc:format>image/svg+xml</dc:format>
    <dc:creator>
     <cc:Agent>
      <dc:title>Matplotlib v3.9.0, https://matplotlib.org/</dc:title>
     </cc:Agent>
    </dc:creator>
   </cc:Work>
  </rdf:RDF>
 </metadata>
 <defs>
  <style type="text/css">*{stroke-linejoin: round; stroke-linecap: butt}</style>
 </defs>
 <g id="figure_1">
  <g id="patch_1">
   <path d="M 0 345.6 
L 460.8 345.6 
L 460.8 0 
L 0 0 
z
" style="fill: #ffffff"/>
  </g>
  <g id="axes_1">
   <g id="patch_2">
    <path d="M 52.376885 300.76 
L 450 300.76 
L 450 26.24256 
L 52.376885 26.24256 
z
" style="fill: #ffffff"/>
   </g>
   <g id="matplotlib.axis_1">
    <g id="xtick_1">
     <g id="line2d_1">
      <defs>
       <path id="mf0f393bee8" d="M 0 0 
L 0 3.5 
" style="stroke: #000000; stroke-width: 0.8"/>
      </defs>
      <g>
       <use xlink:href="#mf0f393bee8" x="100.573626" y="300.76" style="stroke: #000000; stroke-width: 0.8"/>
      </g>
     </g>
     <g id="text_1">
      <!-- 50 -->
      <g transform="translate(94.211126 315.358437) scale(0.1 -0.1)">
       <defs>
        <path id="DejaVuSans-35" d="M 691 4666 
L 3169 4666 
L 3169 4134 
L 1269 4134 
L 1269 2991 
Q 1406 3038 1543 3061 
Q 1681 3084 1819 3084 
Q 2600 3084 3056 2656 
Q 3513 2228 3513 1497 
Q 3513 744 3044 326 
Q 2575 -91 1722 -91 
Q 1428 -91 1123 -41 
Q 819 9 494 109 
L 494 744 
Q 775 591 1075 516 
Q 1375 441 1709 441 
Q 2250 441 2565 725 
Q 2881 1009 2881 1497 
Q 2881 1984 2565 2268 
Q 2250 2553 1709 2553 
Q 1456 2553 1204 2497 
Q 953 2441 691 2322 
L 691 4666 
z
" transform="scale(0.015625)"/>
        <path id="DejaVuSans-30" d="M 2034 4250 
Q 1547 4250 1301 3770 
Q 1056 3291 1056 2328 
Q 1056 1369 1301 889 
Q 1547 409 2034 409 
Q 2525 409 2770 889 
Q 3016 1369 3016 2328 
Q 3016 3291 2770 3770 
Q 2525 4250 2034 4250 
z
M 2034 4750 
Q 2819 4750 3233 4129 
Q 3647 3509 3647 2328 
Q 3647 1150 3233 529 
Q 2819 -91 2034 -91 
Q 1250 -91 836 529 
Q 422 1150 422 2328 
Q 422 3509 836 4129 
Q 1250 4750 2034 4750 
z
" transform="scale(0.015625)"/>
       </defs>
       <use xlink:href="#DejaVuSans-35"/>
       <use xlink:href="#DejaVuSans-30" x="63.623047"/>
      </g>
     </g>
    </g>
    <g id="xtick_2">
     <g id="line2d_2">
      <g>
       <use xlink:href="#mf0f393bee8" x="150.778565" y="300.76" style="stroke: #000000; stroke-width: 0.8"/>
      </g>
     </g>
     <g id="text_2">
      <!-- 100 -->
      <g transform="translate(141.234815 315.358437) scale(0.1 -0.1)">
       <defs>
        <path id="DejaVuSans-31" d="M 794 531 
L 1825 531 
L 1825 4091 
L 703 3866 
L 703 4441 
L 1819 4666 
L 2450 4666 
L 2450 531 
L 3481 531 
L 3481 0 
L 794 0 
L 794 531 
z
" transform="scale(0.015625)"/>
       </defs>
       <use xlink:href="#DejaVuSans-31"/>
       <use xlink:href="#DejaVuSans-30" x="63.623047"/>
       <use xlink:href="#DejaVuSans-30" x="127.246094"/>
      </g>
     </g>
    </g>
    <g id="xtick_3">
     <g id="line2d_3">
      <g>
       <use xlink:href="#mf0f393bee8" x="200.983504" y="300.76" style="stroke: #000000; stroke-width: 0.8"/>
      </g>
     </g>
     <g id="text_3">
      <!-- 150 -->
      <g transform="translate(191.439754 315.358437) scale(0.1 -0.1)">
       <use xlink:href="#DejaVuSans-31"/>
       <use xlink:href="#DejaVuSans-35" x="63.623047"/>
       <use xlink:href="#DejaVuSans-30" x="127.246094"/>
      </g>
     </g>
    </g>
    <g id="xtick_4">
     <g id="line2d_4">
      <g>
       <use xlink:href="#mf0f393bee8" x="251.188442" y="300.76" style="stroke: #000000; stroke-width: 0.8"/>
      </g>
     </g>
     <g id="text_4">
      <!-- 200 -->
      <g transform="translate(241.644692 315.358437) scale(0.1 -0.1)">
       <defs>
        <path id="DejaVuSans-32" d="M 1228 531 
L 3431 531 
L 3431 0 
L 469 0 
L 469 531 
Q 828 903 1448 1529 
Q 2069 2156 2228 2338 
Q 2531 2678 2651 2914 
Q 2772 3150 2772 3378 
Q 2772 3750 2511 3984 
Q 2250 4219 1831 4219 
Q 1534 4219 1204 4116 
Q 875 4013 500 3803 
L 500 4441 
Q 881 4594 1212 4672 
Q 1544 4750 1819 4750 
Q 2544 4750 2975 4387 
Q 3406 4025 3406 3419 
Q 3406 3131 3298 2873 
Q 3191 2616 2906 2266 
Q 2828 2175 2409 1742 
Q 1991 1309 1228 531 
z
" transform="scale(0.015625)"/>
       </defs>
       <use xlink:href="#DejaVuSans-32"/>
       <use xlink:href="#DejaVuSans-30" x="63.623047"/>
       <use xlink:href="#DejaVuSans-30" x="127.246094"/>
      </g>
     </g>
    </g>
    <g id="xtick_5">
     <g id="line2d_5">
      <g>
       <use xlink:href="#mf0f393bee8" x="301.393381" y="300.76" style="stroke: #000000; stroke-width: 0.8"/>
      </g>
     </g>
     <g id="text_5">
      <!-- 250 -->
      <g transform="translate(291.849631 315.358437) scale(0.1 -0.1)">
       <use xlink:href="#DejaVuSans-32"/>
       <use xlink:href="#DejaVuSans-35" x="63.623047"/>
       <use xlink:href="#DejaVuSans-30" x="127.246094"/>
      </g>
     </g>
    </g>
    <g id="xtick_6">
     <g id="line2d_6">
      <g>
       <use xlink:href="#mf0f393bee8" x="351.59832" y="300.76" style="stroke: #000000; stroke-width: 0.8"/>
      </g>
     </g>
     <g id="text_6">
      <!-- 300 -->
      <g transform="translate(342.05457 315.358437) scale(0.1 -0.1)">
       <defs>
        <path id="DejaVuSans-33" d="M 2597 2516 
Q 3050 2419 3304 2112 
Q 3559 1806 3559 1356 
Q 3559 666 3084 287 
Q 2609 -91 1734 -91 
Q 1441 -91 1130 -33 
Q 819 25 488 141 
L 488 750 
Q 750 597 1062 519 
Q 1375 441 1716 441 
Q 2309 441 2620 675 
Q 2931 909 2931 1356 
Q 2931 1769 2642 2001 
Q 2353 2234 1838 2234 
L 1294 2234 
L 1294 2753 
L 1863 2753 
Q 2328 2753 2575 2939 
Q 2822 3125 2822 3475 
Q 2822 3834 2567 4026 
Q 2313 4219 1838 4219 
Q 1578 4219 1281 4162 
Q 984 4106 628 3988 
L 628 4550 
Q 988 4650 1302 4700 
Q 1616 4750 1894 4750 
Q 2613 4750 3031 4423 
Q 3450 4097 3450 3541 
Q 3450 3153 3228 2886 
Q 3006 2619 2597 2516 
z
" transform="scale(0.015625)"/>
       </defs>
       <use xlink:href="#DejaVuSans-33"/>
       <use xlink:href="#DejaVuSans-30" x="63.623047"/>
       <use xlink:href="#DejaVuSans-30" x="127.246094"/>
      </g>
     </g>
    </g>
    <g id="xtick_7">
     <g id="line2d_7">
      <g>
       <use xlink:href="#mf0f393bee8" x="401.803259" y="300.76" style="stroke: #000000; stroke-width: 0.8"/>
      </g>
     </g>
     <g id="text_7">
      <!-- 350 -->
      <g transform="translate(392.259509 315.358437) scale(0.1 -0.1)">
       <use xlink:href="#DejaVuSans-33"/>
       <use xlink:href="#DejaVuSans-35" x="63.623047"/>
       <use xlink:href="#DejaVuSans-30" x="127.246094"/>
      </g>
     </g>
    </g>
    <g id="text_8">
     <!-- Muon $p_{\mathrm{T}}$ (GeV) -->
     <g transform="translate(214.538442 329.038125) scale(0.1 -0.1)">
      <defs>
       <path id="DejaVuSans-4d" d="M 628 4666 
L 1569 4666 
L 2759 1491 
L 3956 4666 
L 4897 4666 
L 4897 0 
L 4281 0 
L 4281 4097 
L 3078 897 
L 2444 897 
L 1241 4097 
L 1241 0 
L 628 0 
L 628 4666 
z
" transform="scale(0.015625)"/>
       <path id="DejaVuSans-75" d="M 544 1381 
L 544 3500 
L 1119 3500 
L 1119 1403 
Q 1119 906 1312 657 
Q 1506 409 1894 409 
Q 2359 409 2629 706 
Q 2900 1003 2900 1516 
L 2900 3500 
L 3475 3500 
L 3475 0 
L 2900 0 
L 2900 538 
Q 2691 219 2414 64 
Q 2138 -91 1772 -91 
Q 1169 -91 856 284 
Q 544 659 544 1381 
z
M 1991 3584 
L 1991 3584 
z
" transform="scale(0.015625)"/>
       <path id="DejaVuSans-6f" d="M 1959 3097 
Q 1497 3097 1228 2736 
Q 959 2375 959 1747 
Q 959 1119 1226 758 
Q 1494 397 1959 397 
Q 2419 397 2687 759 
Q 2956 1122 2956 1747 
Q 2956 2369 2687 2733 
Q 2419 3097 1959 3097 
z
M 1959 3584 
Q 2709 3584 3137 3096 
Q 3566 2609 3566 1747 
Q 3566 888 3137 398 
Q 2709 -91 1959 -91 
Q 1206 -91 779 398 
Q 353 888 353 1747 
Q 353 2609 779 3096 
Q 1206 3584 1959 3584 
z
" transform="scale(0.015625)"/>
       <path id="DejaVuSans-6e" d="M 3513 2113 
L 3513 0 
L 2938 0 
L 2938 2094 
Q 2938 2591 2744 2837 
Q 2550 3084 2163 3084 
Q 1697 3084 1428 2787 
Q 1159 2491 1159 1978 
L 1159 0 
L 581 0 
L 581 3500 
L 1159 3500 
L 1159 2956 
Q 1366 3272 1645 3428 
Q 1925 3584 2291 3584 
Q 2894 3584 3203 3211 
Q 3513 2838 3513 2113 
z
" transform="scale(0.015625)"/>
       <path id="DejaVuSans-20" transform="scale(0.015625)"/>
       <path id="DejaVuSans-Oblique-70" d="M 3175 2156 
Q 3175 2616 2975 2859 
Q 2775 3103 2400 3103 
Q 2144 3103 1911 2972 
Q 1678 2841 1497 2591 
Q 1319 2344 1212 1994 
Q 1106 1644 1106 1300 
Q 1106 863 1306 627 
Q 1506 391 1875 391 
Q 2147 391 2380 519 
Q 2613 647 2778 891 
Q 2956 1147 3065 1494 
Q 3175 1841 3175 2156 
z
M 1394 2969 
Q 1625 3272 1939 3428 
Q 2253 3584 2638 3584 
Q 3175 3584 3472 3232 
Q 3769 2881 3769 2247 
Q 3769 1728 3584 1258 
Q 3400 788 3053 416 
Q 2822 169 2531 39 
Q 2241 -91 1919 -91 
Q 1547 -91 1294 64 
Q 1041 219 916 525 
L 556 -1331 
L -19 -1331 
L 922 3500 
L 1497 3500 
L 1394 2969 
z
" transform="scale(0.015625)"/>
       <path id="DejaVuSans-54" d="M -19 4666 
L 3928 4666 
L 3928 4134 
L 2272 4134 
L 2272 0 
L 1638 0 
L 1638 4134 
L -19 4134 
L -19 4666 
z
" transform="scale(0.015625)"/>
       <path id="DejaVuSans-28" d="M 1984 4856 
Q 1566 4138 1362 3434 
Q 1159 2731 1159 2009 
Q 1159 1288 1364 580 
Q 1569 -128 1984 -844 
L 1484 -844 
Q 1016 -109 783 600 
Q 550 1309 550 2009 
Q 550 2706 781 3412 
Q 1013 4119 1484 4856 
L 1984 4856 
z
" transform="scale(0.015625)"/>
       <path id="DejaVuSans-47" d="M 3809 666 
L 3809 1919 
L 2778 1919 
L 2778 2438 
L 4434 2438 
L 4434 434 
Q 4069 175 3628 42 
Q 3188 -91 2688 -91 
Q 1594 -91 976 548 
Q 359 1188 359 2328 
Q 359 3472 976 4111 
Q 1594 4750 2688 4750 
Q 3144 4750 3555 4637 
Q 3966 4525 4313 4306 
L 4313 3634 
Q 3963 3931 3569 4081 
Q 3175 4231 2741 4231 
Q 1884 4231 1454 3753 
Q 1025 3275 1025 2328 
Q 1025 1384 1454 906 
Q 1884 428 2741 428 
Q 3075 428 3337 486 
Q 3600 544 3809 666 
z
" transform="scale(0.015625)"/>
       <path id="DejaVuSans-65" d="M 3597 1894 
L 3597 1613 
L 953 1613 
Q 991 1019 1311 708 
Q 1631 397 2203 397 
Q 2534 397 2845 478 
Q 3156 559 3463 722 
L 3463 178 
Q 3153 47 2828 -22 
Q 2503 -91 2169 -91 
Q 1331 -91 842 396 
Q 353 884 353 1716 
Q 353 2575 817 3079 
Q 1281 3584 2069 3584 
Q 2775 3584 3186 3129 
Q 3597 2675 3597 1894 
z
M 3022 2063 
Q 3016 2534 2758 2815 
Q 2500 3097 2075 3097 
Q 1594 3097 1305 2825 
Q 1016 2553 972 2059 
L 3022 2063 
z
" transform="scale(0.015625)"/>
       <path id="DejaVuSans-56" d="M 1831 0 
L 50 4666 
L 709 4666 
L 2188 738 
L 3669 4666 
L 4325 4666 
L 2547 0 
L 1831 0 
z
" transform="scale(0.015625)"/>
       <path id="DejaVuSans-29" d="M 513 4856 
L 1013 4856 
Q 1481 4119 1714 3412 
Q 1947 2706 1947 2009 
Q 1947 1309 1714 600 
Q 1481 -109 1013 -844 
L 513 -844 
Q 928 -128 1133 580 
Q 1338 1288 1338 2009 
Q 1338 2731 1133 3434 
Q 928 4138 513 4856 
z
" transform="scale(0.015625)"/>
      </defs>
      <use xlink:href="#DejaVuSans-4d" transform="translate(0 0.125)"/>
      <use xlink:href="#DejaVuSans-75" transform="translate(86.279297 0.125)"/>
      <use xlink:href="#DejaVuSans-6f" transform="translate(149.658203 0.125)"/>
      <use xlink:href="#DejaVuSans-6e" transform="translate(210.839844 0.125)"/>
      <use xlink:href="#DejaVuSans-20" transform="translate(274.21875 0.125)"/>
      <use xlink:href="#DejaVuSans-Oblique-70" transform="translate(306.005859 0.125)"/>
      <use xlink:href="#DejaVuSans-54" transform="translate(369.482422 -16.28125) scale(0.7)"/>
      <use xlink:href="#DejaVuSans-20" transform="translate(414.975586 0.125)"/>
      <use xlink:href="#DejaVuSans-28" transform="translate(446.762695 0.125)"/>
      <use xlink:href="#DejaVuSans-47" transform="translate(485.776367 0.125)"/>
      <use xlink:href="#DejaVuSans-65" transform="translate(563.266602 0.125)"/>
      <use xlink:href="#DejaVuSans-56" transform="translate(624.790039 0.125)"/>
      <use xlink:href="#DejaVuSans-29" transform="translate(693.198242 0.125)"/>
     </g>
    </g>
   </g>
   <g id="matplotlib.axis_2">
    <g id="ytick_1">
     <g id="line2d_8">
      <defs>
       <path id="m85a1fc4821" d="M 0 0 
L -3.5 0 
" style="stroke: #000000; stroke-width: 0.8"/>
      </defs>
      <g>
       <use xlink:href="#m85a1fc4821" x="52.376885" y="288.281935" style="stroke: #000000; stroke-width: 0.8"/>
      </g>
     </g>
     <g id="text_9">
      <!-- $\mathdefault{0}$ -->
      <g transform="translate(38.976885 292.081153) scale(0.1 -0.1)">
       <use xlink:href="#DejaVuSans-30" transform="translate(0 0.78125)"/>
      </g>
     </g>
    </g>
    <g id="ytick_2">
     <g id="line2d_9">
      <g>
       <use xlink:href="#m85a1fc4821" x="52.376885" y="252.144866" style="stroke: #000000; stroke-width: 0.8"/>
      </g>
     </g>
     <g id="text_10">
      <!-- $\mathdefault{25}$ -->
      <g transform="translate(32.576885 255.944085) scale(0.1 -0.1)">
       <use xlink:href="#DejaVuSans-32" transform="translate(0 0.78125)"/>
       <use xlink:href="#DejaVuSans-35" transform="translate(63.623047 0.78125)"/>
      </g>
     </g>
    </g>
    <g id="ytick_3">
     <g id="line2d_10">
      <g>
       <use xlink:href="#m85a1fc4821" x="52.376885" y="216.007798" style="stroke: #000000; stroke-width: 0.8"/>
      </g>
     </g>
     <g id="text_11">
      <!-- $\mathdefault{50}$ -->
      <g transform="translate(32.576885 219.807016) scale(0.1 -0.1)">
       <use xlink:href="#DejaVuSans-35" transform="translate(0 0.78125)"/>
       <use xlink:href="#DejaVuSans-30" transform="translate(63.623047 0.78125)"/>
      </g>
     </g>
    </g>
    <g id="ytick_4">
     <g id="line2d_11">
      <g>
       <use xlink:href="#m85a1fc4821" x="52.376885" y="179.870729" style="stroke: #000000; stroke-width: 0.8"/>
      </g>
     </g>
     <g id="text_12">
      <!-- $\mathdefault{75}$ -->
      <g transform="translate(32.576885 183.669948) scale(0.1 -0.1)">
       <defs>
        <path id="DejaVuSans-37" d="M 525 4666 
L 3525 4666 
L 3525 4397 
L 1831 0 
L 1172 0 
L 2766 4134 
L 525 4134 
L 525 4666 
z
" transform="scale(0.015625)"/>
       </defs>
       <use xlink:href="#DejaVuSans-37" transform="translate(0 0.09375)"/>
       <use xlink:href="#DejaVuSans-35" transform="translate(63.623047 0.09375)"/>
      </g>
     </g>
    </g>
    <g id="ytick_5">
     <g id="line2d_12">
      <g>
       <use xlink:href="#m85a1fc4821" x="52.376885" y="143.733661" style="stroke: #000000; stroke-width: 0.8"/>
      </g>
     </g>
     <g id="text_13">
      <!-- $\mathdefault{100}$ -->
      <g transform="translate(26.276885 147.53288) scale(0.1 -0.1)">
       <use xlink:href="#DejaVuSans-31" transform="translate(0 0.78125)"/>
       <use xlink:href="#DejaVuSans-30" transform="translate(63.623047 0.78125)"/>
       <use xlink:href="#DejaVuSans-30" transform="translate(127.246094 0.78125)"/>
      </g>
     </g>
    </g>
    <g id="ytick_6">
     <g id="line2d_13">
      <g>
       <use xlink:href="#m85a1fc4821" x="52.376885" y="107.596592" style="stroke: #000000; stroke-width: 0.8"/>
      </g>
     </g>
     <g id="text_14">
      <!-- $\mathdefault{125}$ -->
      <g transform="translate(26.276885 111.395811) scale(0.1 -0.1)">
       <use xlink:href="#DejaVuSans-31" transform="translate(0 0.78125)"/>
       <use xlink:href="#DejaVuSans-32" transform="translate(63.623047 0.78125)"/>
       <use xlink:href="#DejaVuSans-35" transform="translate(127.246094 0.78125)"/>
      </g>
     </g>
    </g>
    <g id="ytick_7">
     <g id="line2d_14">
      <g>
       <use xlink:href="#m85a1fc4821" x="52.376885" y="71.459524" style="stroke: #000000; stroke-width: 0.8"/>
      </g>
     </g>
     <g id="text_15">
      <!-- $\mathdefault{150}$ -->
      <g transform="translate(26.276885 75.258743) scale(0.1 -0.1)">
       <use xlink:href="#DejaVuSans-31" transform="translate(0 0.78125)"/>
       <use xlink:href="#DejaVuSans-35" transform="translate(63.623047 0.78125)"/>
       <use xlink:href="#DejaVuSans-30" transform="translate(127.246094 0.78125)"/>
      </g>
     </g>
    </g>
    <g id="ytick_8">
     <g id="line2d_15">
      <g>
       <use xlink:href="#m85a1fc4821" x="52.376885" y="35.322455" style="stroke: #000000; stroke-width: 0.8"/>
      </g>
     </g>
     <g id="text_16">
      <!-- $\mathdefault{175}$ -->
      <g transform="translate(26.276885 39.121674) scale(0.1 -0.1)">
       <use xlink:href="#DejaVuSans-31" transform="translate(0 0.09375)"/>
       <use xlink:href="#DejaVuSans-37" transform="translate(63.623047 0.09375)"/>
       <use xlink:href="#DejaVuSans-35" transform="translate(127.246094 0.09375)"/>
      </g>
     </g>
    </g>
    <g id="text_17">
     <!-- Events / $4$ GeV -->
     <g transform="translate(20.197197 200.45128) rotate(-90) scale(0.1 -0.1)">
      <defs>
       <path id="DejaVuSans-45" d="M 628 4666 
L 3578 4666 
L 3578 4134 
L 1259 4134 
L 1259 2753 
L 3481 2753 
L 3481 2222 
L 1259 2222 
L 1259 531 
L 3634 531 
L 3634 0 
L 628 0 
L 628 4666 
z
" transform="scale(0.015625)"/>
       <path id="DejaVuSans-76" d="M 191 3500 
L 800 3500 
L 1894 563 
L 2988 3500 
L 3597 3500 
L 2284 0 
L 1503 0 
L 191 3500 
z
" transform="scale(0.015625)"/>
       <path id="DejaVuSans-74" d="M 1172 4494 
L 1172 3500 
L 2356 3500 
L 2356 3053 
L 1172 3053 
L 1172 1153 
Q 1172 725 1289 603 
Q 1406 481 1766 481 
L 2356 481 
L 2356 0 
L 1766 0 
Q 1100 0 847 248 
Q 594 497 594 1153 
L 594 3053 
L 172 3053 
L 172 3500 
L 594 3500 
L 594 4494 
L 1172 4494 
z
" transform="scale(0.015625)"/>
       <path id="DejaVuSans-73" d="M 2834 3397 
L 2834 2853 
Q 2591 2978 2328 3040 
Q 2066 3103 1784 3103 
Q 1356 3103 1142 2972 
Q 928 2841 928 2578 
Q 928 2378 1081 2264 
Q 1234 2150 1697 2047 
L 1894 2003 
Q 2506 1872 2764 1633 
Q 3022 1394 3022 966 
Q 3022 478 2636 193 
Q 2250 -91 1575 -91 
Q 1294 -91 989 -36 
Q 684 19 347 128 
L 347 722 
Q 666 556 975 473 
Q 1284 391 1588 391 
Q 1994 391 2212 530 
Q 2431 669 2431 922 
Q 2431 1156 2273 1281 
Q 2116 1406 1581 1522 
L 1381 1569 
Q 847 1681 609 1914 
Q 372 2147 372 2553 
Q 372 3047 722 3315 
Q 1072 3584 1716 3584 
Q 2034 3584 2315 3537 
Q 2597 3491 2834 3397 
z
" transform="scale(0.015625)"/>
       <path id="DejaVuSans-2f" d="M 1625 4666 
L 2156 4666 
L 531 -594 
L 0 -594 
L 1625 4666 
z
" transform="scale(0.015625)"/>
       <path id="DejaVuSans-34" d="M 2419 4116 
L 825 1625 
L 2419 1625 
L 2419 4116 
z
M 2253 4666 
L 3047 4666 
L 3047 1625 
L 3713 1625 
L 3713 1100 
L 3047 1100 
L 3047 0 
L 2419 0 
L 2419 1100 
L 313 1100 
L 313 1709 
L 2253 4666 
z
" transform="scale(0.015625)"/>
      </defs>
      <use xlink:href="#DejaVuSans-45" transform="translate(0 0.78125)"/>
      <use xlink:href="#DejaVuSans-76" transform="translate(63.183594 0.78125)"/>
      <use xlink:href="#DejaVuSans-65" transform="translate(122.363281 0.78125)"/>
      <use xlink:href="#DejaVuSans-6e" transform="translate(183.886719 0.78125)"/>
      <use xlink:href="#DejaVuSans-74" transform="translate(247.265625 0.78125)"/>
      <use xlink:href="#DejaVuSans-73" transform="translate(286.474609 0.78125)"/>
      <use xlink:href="#DejaVuSans-20" transform="translate(338.574219 0.78125)"/>
      <use xlink:href="#DejaVuSans-2f" transform="translate(370.361328 0.78125)"/>
      <use xlink:href="#DejaVuSans-20" transform="translate(404.052734 0.78125)"/>
      <use xlink:href="#DejaVuSans-34" transform="translate(435.839844 0.78125)"/>
      <use xlink:href="#DejaVuSans-20" transform="translate(499.462891 0.78125)"/>
      <use xlink:href="#DejaVuSans-47" transform="translate(531.25 0.78125)"/>
      <use xlink:href="#DejaVuSans-65" transform="translate(608.740234 0.78125)"/>
      <use xlink:href="#DejaVuSans-56" transform="translate(670.263672 0.78125)"/>
     </g>
    </g>
   </g>
   <g id="LineCollection_1">
    <path d="M 52.376885 279.609038 
L 52.376885 270.936142 
" clip-path="url(#pb42756f004)" style="fill: none; stroke: #000000; stroke-width: 1.5"/>
    <path d="M 56.39328 216.802574 
L 56.39328 194.976263 
" clip-path="url(#pb42756f004)" style="fill: none; stroke: #000000; stroke-width: 1.5"/>
    <path d="M 60.409675 75.288768 
L 60.409675 38.720625 
" clip-path="url(#pb42756f004)" style="fill: none; stroke: #000000; stroke-width: 1.5"/>
    <path d="M 64.42607 75.288768 
L 64.42607 38.720625 
" clip-path="url(#pb42756f004)" style="fill: none; stroke: #000000; stroke-width: 1.5"/>
    <path d="M 68.442465 140.308077 
L 68.442465 109.576693 
" clip-path="url(#pb42756f004)" style="fill: none; stroke: #000000; stroke-width: 1.5"/>
    <path d="M 72.45886 130.658476 
L 72.45886 98.989536 
" clip-path="url(#pb42756f004)" style="fill: none; stroke: #000000; stroke-width: 1.5"/>
    <path d="M 76.475255 149.94292 
L 76.475255 120.178609 
" clip-path="url(#pb42756f004)" style="fill: none; stroke: #000000; stroke-width: 1.5"/>
    <path d="M 80.49165 200.550707 
L 80.49165 176.536544 
" clip-path="url(#pb42756f004)" style="fill: none; stroke: #000000; stroke-width: 1.5"/>
    <path d="M 84.508046 242.264145 
L 84.508046 224.443036 
" clip-path="url(#pb42756f004)" style="fill: none; stroke: #000000; stroke-width: 1.5"/>
    <path d="M 88.524441 242.264145 
L 88.524441 224.443036 
" clip-path="url(#pb42756f004)" style="fill: none; stroke: #000000; stroke-width: 1.5"/>
    <path d="M 92.540836 258.069928 
L 92.540836 243.328839 
" clip-path="url(#pb42756f004)" style="fill: none; stroke: #000000; stroke-width: 1.5"/>
    <path d="M 96.557231 267.118476 
L 96.557231 254.517049 
" clip-path="url(#pb42756f004)" style="fill: none; stroke: #000000; stroke-width: 1.5"/>
    <path d="M 100.573626 275.943441 
L 100.573626 265.928843 
" clip-path="url(#pb42756f004)" style="fill: none; stroke: #000000; stroke-width: 1.5"/>
    <path d="M 104.590021 278.398125 
L 104.590021 269.256089 
" clip-path="url(#pb42756f004)" style="fill: none; stroke: #000000; stroke-width: 1.5"/>
    <path d="M 108.606416 286.449136 
L 108.606416 281.441837 
" clip-path="url(#pb42756f004)" style="fill: none; stroke: #000000; stroke-width: 1.5"/>
    <path d="M 112.622811 280.806515 
L 112.622811 272.62963 
" clip-path="url(#pb42756f004)" style="fill: none; stroke: #000000; stroke-width: 1.5"/>
    <path d="M 116.639206 281.987943 
L 116.639206 274.339168 
" clip-path="url(#pb42756f004)" style="fill: none; stroke: #000000; stroke-width: 1.5"/>
    <path d="M 120.655602 284.286719 
L 120.655602 277.822323 
" clip-path="url(#pb42756f004)" style="fill: none; stroke: #000000; stroke-width: 1.5"/>
    <path d="M 124.671997 286.449136 
L 124.671997 281.441837 
" clip-path="url(#pb42756f004)" style="fill: none; stroke: #000000; stroke-width: 1.5"/>
    <path d="M 128.688392 284.286719 
L 128.688392 277.822323 
" clip-path="url(#pb42756f004)" style="fill: none; stroke: #000000; stroke-width: 1.5"/>
    <path d="M 132.704787 287.43519 
L 132.704787 283.346748 
" clip-path="url(#pb42756f004)" style="fill: none; stroke: #000000; stroke-width: 1.5"/>
    <path d="M 136.721182 287.43519 
L 136.721182 283.346748 
" clip-path="url(#pb42756f004)" style="fill: none; stroke: #000000; stroke-width: 1.5"/>
    <path d="M 140.737577 288.281935 
L 140.737577 285.390969 
" clip-path="url(#pb42756f004)" style="fill: none; stroke: #000000; stroke-width: 1.5"/>
    <path d="M 144.753972 287.43519 
L 144.753972 283.346748 
" clip-path="url(#pb42756f004)" style="fill: none; stroke: #000000; stroke-width: 1.5"/>
    <path d="M 148.770367 288.281935 
L 148.770367 288.281935 
" clip-path="url(#pb42756f004)" style="fill: none; stroke: #000000; stroke-width: 1.5"/>
    <path d="M 152.786762 288.281935 
L 152.786762 285.390969 
" clip-path="url(#pb42756f004)" style="fill: none; stroke: #000000; stroke-width: 1.5"/>
    <path d="M 156.803157 288.281935 
L 156.803157 285.390969 
" clip-path="url(#pb42756f004)" style="fill: none; stroke: #000000; stroke-width: 1.5"/>
    <path d="M 160.819553 288.281935 
L 160.819553 285.390969 
" clip-path="url(#pb42756f004)" style="fill: none; stroke: #000000; stroke-width: 1.5"/>
    <path d="M 164.835948 288.281935 
L 164.835948 285.390969 
" clip-path="url(#pb42756f004)" style="fill: none; stroke: #000000; stroke-width: 1.5"/>
    <path d="M 168.852343 288.281935 
L 168.852343 288.281935 
" clip-path="url(#pb42756f004)" style="fill: none; stroke: #000000; stroke-width: 1.5"/>
    <path d="M 172.868738 288.281935 
L 172.868738 288.281935 
" clip-path="url(#pb42756f004)" style="fill: none; stroke: #000000; stroke-width: 1.5"/>
    <path d="M 176.885133 288.281935 
L 176.885133 288.281935 
" clip-path="url(#pb42756f004)" style="fill: none; stroke: #000000; stroke-width: 1.5"/>
    <path d="M 180.901528 288.281935 
L 180.901528 288.281935 
" clip-path="url(#pb42756f004)" style="fill: none; stroke: #000000; stroke-width: 1.5"/>
    <path d="M 184.917923 288.281935 
L 184.917923 288.281935 
" clip-path="url(#pb42756f004)" style="fill: none; stroke: #000000; stroke-width: 1.5"/>
    <path d="M 188.934318 288.281935 
L 188.934318 288.281935 
" clip-path="url(#pb42756f004)" style="fill: none; stroke: #000000; stroke-width: 1.5"/>
    <path d="M 192.950713 288.281935 
L 192.950713 288.281935 
" clip-path="url(#pb42756f004)" style="fill: none; stroke: #000000; stroke-width: 1.5"/>
    <path d="M 196.967108 288.281935 
L 196.967108 288.281935 
" clip-path="url(#pb42756f004)" style="fill: none; stroke: #000000; stroke-width: 1.5"/>
    <path d="M 200.983504 288.281935 
L 200.983504 285.390969 
" clip-path="url(#pb42756f004)" style="fill: none; stroke: #000000; stroke-width: 1.5"/>
    <path d="M 204.999899 288.281935 
L 204.999899 285.390969 
" clip-path="url(#pb42756f004)" style="fill: none; stroke: #000000; stroke-width: 1.5"/>
    <path d="M 209.016294 288.281935 
L 209.016294 288.281935 
" clip-path="url(#pb42756f004)" style="fill: none; stroke: #000000; stroke-width: 1.5"/>
    <path d="M 213.032689 288.281935 
L 213.032689 288.281935 
" clip-path="url(#pb42756f004)" style="fill: none; stroke: #000000; stroke-width: 1.5"/>
    <path d="M 217.049084 288.281935 
L 217.049084 288.281935 
" clip-path="url(#pb42756f004)" style="fill: none; stroke: #000000; stroke-width: 1.5"/>
    <path d="M 221.065479 288.281935 
L 221.065479 288.281935 
" clip-path="url(#pb42756f004)" style="fill: none; stroke: #000000; stroke-width: 1.5"/>
    <path d="M 225.081874 288.281935 
L 225.081874 288.281935 
" clip-path="url(#pb42756f004)" style="fill: none; stroke: #000000; stroke-width: 1.5"/>
    <path d="M 229.098269 288.281935 
L 229.098269 288.281935 
" clip-path="url(#pb42756f004)" style="fill: none; stroke: #000000; stroke-width: 1.5"/>
    <path d="M 233.114664 288.281935 
L 233.114664 288.281935 
" clip-path="url(#pb42756f004)" style="fill: none; stroke: #000000; stroke-width: 1.5"/>
    <path d="M 237.13106 288.281935 
L 237.13106 288.281935 
" clip-path="url(#pb42756f004)" style="fill: none; stroke: #000000; stroke-width: 1.5"/>
    <path d="M 241.147455 287.43519 
L 241.147455 283.346748 
" clip-path="url(#pb42756f004)" style="fill: none; stroke: #000000; stroke-width: 1.5"/>
    <path d="M 245.16385 288.281935 
L 245.16385 288.281935 
" clip-path="url(#pb42756f004)" style="fill: none; stroke: #000000; stroke-width: 1.5"/>
    <path d="M 249.180245 288.281935 
L 249.180245 288.281935 
" clip-path="url(#pb42756f004)" style="fill: none; stroke: #000000; stroke-width: 1.5"/>
    <path d="M 253.19664 288.281935 
L 253.19664 288.281935 
" clip-path="url(#pb42756f004)" style="fill: none; stroke: #000000; stroke-width: 1.5"/>
    <path d="M 257.213035 288.281935 
L 257.213035 288.281935 
" clip-path="url(#pb42756f004)" style="fill: none; stroke: #000000; stroke-width: 1.5"/>
    <path d="M 261.22943 288.281935 
L 261.22943 288.281935 
" clip-path="url(#pb42756f004)" style="fill: none; stroke: #000000; stroke-width: 1.5"/>
    <path d="M 265.245825 288.281935 
L 265.245825 288.281935 
" clip-path="url(#pb42756f004)" style="fill: none; stroke: #000000; stroke-width: 1.5"/>
    <path d="M 269.26222 288.281935 
L 269.26222 288.281935 
" clip-path="url(#pb42756f004)" style="fill: none; stroke: #000000; stroke-width: 1.5"/>
    <path d="M 273.278615 288.281935 
L 273.278615 288.281935 
" clip-path="url(#pb42756f004)" style="fill: none; stroke: #000000; stroke-width: 1.5"/>
    <path d="M 277.295011 288.281935 
L 277.295011 288.281935 
" clip-path="url(#pb42756f004)" style="fill: none; stroke: #000000; stroke-width: 1.5"/>
    <path d="M 281.311406 288.281935 
L 281.311406 288.281935 
" clip-path="url(#pb42756f004)" style="fill: none; stroke: #000000; stroke-width: 1.5"/>
    <path d="M 285.327801 288.281935 
L 285.327801 288.281935 
" clip-path="url(#pb42756f004)" style="fill: none; stroke: #000000; stroke-width: 1.5"/>
    <path d="M 289.344196 288.281935 
L 289.344196 288.281935 
" clip-path="url(#pb42756f004)" style="fill: none; stroke: #000000; stroke-width: 1.5"/>
    <path d="M 293.360591 288.281935 
L 293.360591 288.281935 
" clip-path="url(#pb42756f004)" style="fill: none; stroke: #000000; stroke-width: 1.5"/>
    <path d="M 297.376986 288.281935 
L 297.376986 288.281935 
" clip-path="url(#pb42756f004)" style="fill: none; stroke: #000000; stroke-width: 1.5"/>
    <path d="M 301.393381 288.281935 
L 301.393381 285.390969 
" clip-path="url(#pb42756f004)" style="fill: none; stroke: #000000; stroke-width: 1.5"/>
    <path d="M 305.409776 288.281935 
L 305.409776 288.281935 
" clip-path="url(#pb42756f004)" style="fill: none; stroke: #000000; stroke-width: 1.5"/>
    <path d="M 309.426171 288.281935 
L 309.426171 288.281935 
" clip-path="url(#pb42756f004)" style="fill: none; stroke: #000000; stroke-width: 1.5"/>
    <path d="M 313.442566 288.281935 
L 313.442566 288.281935 
" clip-path="url(#pb42756f004)" style="fill: none; stroke: #000000; stroke-width: 1.5"/>
    <path d="M 317.458962 288.281935 
L 317.458962 288.281935 
" clip-path="url(#pb42756f004)" style="fill: none; stroke: #000000; stroke-width: 1.5"/>
    <path d="M 321.475357 288.281935 
L 321.475357 288.281935 
" clip-path="url(#pb42756f004)" style="fill: none; stroke: #000000; stroke-width: 1.5"/>
    <path d="M 325.491752 288.281935 
L 325.491752 288.281935 
" clip-path="url(#pb42756f004)" style="fill: none; stroke: #000000; stroke-width: 1.5"/>
    <path d="M 329.508147 288.281935 
L 329.508147 288.281935 
" clip-path="url(#pb42756f004)" style="fill: none; stroke: #000000; stroke-width: 1.5"/>
    <path d="M 333.524542 288.281935 
L 333.524542 288.281935 
" clip-path="url(#pb42756f004)" style="fill: none; stroke: #000000; stroke-width: 1.5"/>
    <path d="M 337.540937 288.281935 
L 337.540937 288.281935 
" clip-path="url(#pb42756f004)" style="fill: none; stroke: #000000; stroke-width: 1.5"/>
    <path d="M 341.557332 288.281935 
L 341.557332 288.281935 
" clip-path="url(#pb42756f004)" style="fill: none; stroke: #000000; stroke-width: 1.5"/>
    <path d="M 345.573727 288.281935 
L 345.573727 288.281935 
" clip-path="url(#pb42756f004)" style="fill: none; stroke: #000000; stroke-width: 1.5"/>
    <path d="M 349.590122 288.281935 
L 349.590122 288.281935 
" clip-path="url(#pb42756f004)" style="fill: none; stroke: #000000; stroke-width: 1.5"/>
    <path d="M 353.606518 288.281935 
L 353.606518 288.281935 
" clip-path="url(#pb42756f004)" style="fill: none; stroke: #000000; stroke-width: 1.5"/>
    <path d="M 357.622913 288.281935 
L 357.622913 288.281935 
" clip-path="url(#pb42756f004)" style="fill: none; stroke: #000000; stroke-width: 1.5"/>
    <path d="M 361.639308 288.281935 
L 361.639308 288.281935 
" clip-path="url(#pb42756f004)" style="fill: none; stroke: #000000; stroke-width: 1.5"/>
    <path d="M 365.655703 288.281935 
L 365.655703 288.281935 
" clip-path="url(#pb42756f004)" style="fill: none; stroke: #000000; stroke-width: 1.5"/>
    <path d="M 369.672098 288.281935 
L 369.672098 288.281935 
" clip-path="url(#pb42756f004)" style="fill: none; stroke: #000000; stroke-width: 1.5"/>
    <path d="M 373.688493 288.281935 
L 373.688493 288.281935 
" clip-path="url(#pb42756f004)" style="fill: none; stroke: #000000; stroke-width: 1.5"/>
    <path d="M 377.704888 288.281935 
L 377.704888 288.281935 
" clip-path="url(#pb42756f004)" style="fill: none; stroke: #000000; stroke-width: 1.5"/>
    <path d="M 381.721283 288.281935 
L 381.721283 288.281935 
" clip-path="url(#pb42756f004)" style="fill: none; stroke: #000000; stroke-width: 1.5"/>
    <path d="M 385.737678 288.281935 
L 385.737678 288.281935 
" clip-path="url(#pb42756f004)" style="fill: none; stroke: #000000; stroke-width: 1.5"/>
    <path d="M 389.754073 288.281935 
L 389.754073 288.281935 
" clip-path="url(#pb42756f004)" style="fill: none; stroke: #000000; stroke-width: 1.5"/>
    <path d="M 393.770469 288.281935 
L 393.770469 288.281935 
" clip-path="url(#pb42756f004)" style="fill: none; stroke: #000000; stroke-width: 1.5"/>
    <path d="M 397.786864 288.281935 
L 397.786864 288.281935 
" clip-path="url(#pb42756f004)" style="fill: none; stroke: #000000; stroke-width: 1.5"/>
    <path d="M 401.803259 288.281935 
L 401.803259 288.281935 
" clip-path="url(#pb42756f004)" style="fill: none; stroke: #000000; stroke-width: 1.5"/>
    <path d="M 405.819654 288.281935 
L 405.819654 288.281935 
" clip-path="url(#pb42756f004)" style="fill: none; stroke: #000000; stroke-width: 1.5"/>
    <path d="M 409.836049 288.281935 
L 409.836049 288.281935 
" clip-path="url(#pb42756f004)" style="fill: none; stroke: #000000; stroke-width: 1.5"/>
    <path d="M 413.852444 288.281935 
L 413.852444 288.281935 
" clip-path="url(#pb42756f004)" style="fill: none; stroke: #000000; stroke-width: 1.5"/>
    <path d="M 417.868839 288.281935 
L 417.868839 288.281935 
" clip-path="url(#pb42756f004)" style="fill: none; stroke: #000000; stroke-width: 1.5"/>
    <path d="M 421.885234 288.281935 
L 421.885234 288.281935 
" clip-path="url(#pb42756f004)" style="fill: none; stroke: #000000; stroke-width: 1.5"/>
    <path d="M 425.901629 288.281935 
L 425.901629 288.281935 
" clip-path="url(#pb42756f004)" style="fill: none; stroke: #000000; stroke-width: 1.5"/>
    <path d="M 429.918024 288.281935 
L 429.918024 288.281935 
" clip-path="url(#pb42756f004)" style="fill: none; stroke: #000000; stroke-width: 1.5"/>
    <path d="M 433.93442 288.281935 
L 433.93442 288.281935 
" clip-path="url(#pb42756f004)" style="fill: none; stroke: #000000; stroke-width: 1.5"/>
    <path d="M 437.950815 288.281935 
L 437.950815 288.281935 
" clip-path="url(#pb42756f004)" style="fill: none; stroke: #000000; stroke-width: 1.5"/>
    <path d="M 441.96721 288.281935 
L 441.96721 288.281935 
" clip-path="url(#pb42756f004)" style="fill: none; stroke: #000000; stroke-width: 1.5"/>
    <path d="M 445.983605 288.281935 
L 445.983605 288.281935 
" clip-path="url(#pb42756f004)" style="fill: none; stroke: #000000; stroke-width: 1.5"/>
    <path d="M 450 288.281935 
L 450 285.390969 
" clip-path="url(#pb42756f004)" style="fill: none; stroke: #000000; stroke-width: 1.5"/>
   </g>
   <g id="line2d_16">
    <defs>
     <path id="m320e14ee00" d="M 0 1.5 
C 0.397805 1.5 0.77937 1.341951 1.06066 1.06066 
C 1.341951 0.77937 1.5 0.397805 1.5 0 
C 1.5 -0.397805 1.341951 -0.77937 1.06066 -1.06066 
C 0.77937 -1.341951 0.397805 -1.5 0 -1.5 
C -0.397805 -1.5 -0.77937 -1.341951 -1.06066 -1.06066 
C -1.341951 -0.77937 -1.5 -0.397805 -1.5 0 
C -1.5 0.397805 -1.341951 0.77937 -1.06066 1.06066 
C -0.77937 1.341951 -0.397805 1.5 0 1.5 
z
" style="stroke: #000000"/>
    </defs>
    <g clip-path="url(#pb42756f004)">
     <use xlink:href="#m320e14ee00" x="52.376885" y="275.27259" style="stroke: #000000"/>
     <use xlink:href="#m320e14ee00" x="56.39328" y="205.889419" style="stroke: #000000"/>
     <use xlink:href="#m320e14ee00" x="60.409675" y="57.004697" style="stroke: #000000"/>
     <use xlink:href="#m320e14ee00" x="64.42607" y="57.004697" style="stroke: #000000"/>
     <use xlink:href="#m320e14ee00" x="68.442465" y="124.942385" style="stroke: #000000"/>
     <use xlink:href="#m320e14ee00" x="72.45886" y="114.824006" style="stroke: #000000"/>
     <use xlink:href="#m320e14ee00" x="76.475255" y="135.060764" style="stroke: #000000"/>
     <use xlink:href="#m320e14ee00" x="80.49165" y="188.543626" style="stroke: #000000"/>
     <use xlink:href="#m320e14ee00" x="84.508046" y="233.353591" style="stroke: #000000"/>
     <use xlink:href="#m320e14ee00" x="88.524441" y="233.353591" style="stroke: #000000"/>
     <use xlink:href="#m320e14ee00" x="92.540836" y="250.699383" style="stroke: #000000"/>
     <use xlink:href="#m320e14ee00" x="96.557231" y="260.817763" style="stroke: #000000"/>
     <use xlink:href="#m320e14ee00" x="100.573626" y="270.936142" style="stroke: #000000"/>
     <use xlink:href="#m320e14ee00" x="104.590021" y="273.827107" style="stroke: #000000"/>
     <use xlink:href="#m320e14ee00" x="108.606416" y="283.945486" style="stroke: #000000"/>
     <use xlink:href="#m320e14ee00" x="112.622811" y="276.718073" style="stroke: #000000"/>
     <use xlink:href="#m320e14ee00" x="116.639206" y="278.163555" style="stroke: #000000"/>
     <use xlink:href="#m320e14ee00" x="120.655602" y="281.054521" style="stroke: #000000"/>
     <use xlink:href="#m320e14ee00" x="124.671997" y="283.945486" style="stroke: #000000"/>
     <use xlink:href="#m320e14ee00" x="128.688392" y="281.054521" style="stroke: #000000"/>
     <use xlink:href="#m320e14ee00" x="132.704787" y="285.390969" style="stroke: #000000"/>
     <use xlink:href="#m320e14ee00" x="136.721182" y="285.390969" style="stroke: #000000"/>
     <use xlink:href="#m320e14ee00" x="140.737577" y="286.836452" style="stroke: #000000"/>
     <use xlink:href="#m320e14ee00" x="144.753972" y="285.390969" style="stroke: #000000"/>
     <use xlink:href="#m320e14ee00" x="148.770367" y="288.281935" style="stroke: #000000"/>
     <use xlink:href="#m320e14ee00" x="152.786762" y="286.836452" style="stroke: #000000"/>
     <use xlink:href="#m320e14ee00" x="156.803157" y="286.836452" style="stroke: #000000"/>
     <use xlink:href="#m320e14ee00" x="160.819553" y="286.836452" style="stroke: #000000"/>
     <use xlink:href="#m320e14ee00" x="164.835948" y="286.836452" style="stroke: #000000"/>
     <use xlink:href="#m320e14ee00" x="168.852343" y="288.281935" style="stroke: #000000"/>
     <use xlink:href="#m320e14ee00" x="172.868738" y="288.281935" style="stroke: #000000"/>
     <use xlink:href="#m320e14ee00" x="176.885133" y="288.281935" style="stroke: #000000"/>
     <use xlink:href="#m320e14ee00" x="180.901528" y="288.281935" style="stroke: #000000"/>
     <use xlink:href="#m320e14ee00" x="184.917923" y="288.281935" style="stroke: #000000"/>
     <use xlink:href="#m320e14ee00" x="188.934318" y="288.281935" style="stroke: #000000"/>
     <use xlink:href="#m320e14ee00" x="192.950713" y="288.281935" style="stroke: #000000"/>
     <use xlink:href="#m320e14ee00" x="196.967108" y="288.281935" style="stroke: #000000"/>
     <use xlink:href="#m320e14ee00" x="200.983504" y="286.836452" style="stroke: #000000"/>
     <use xlink:href="#m320e14ee00" x="204.999899" y="286.836452" style="stroke: #000000"/>
     <use xlink:href="#m320e14ee00" x="209.016294" y="288.281935" style="stroke: #000000"/>
     <use xlink:href="#m320e14ee00" x="213.032689" y="288.281935" style="stroke: #000000"/>
     <use xlink:href="#m320e14ee00" x="217.049084" y="288.281935" style="stroke: #000000"/>
     <use xlink:href="#m320e14ee00" x="221.065479" y="288.281935" style="stroke: #000000"/>
     <use xlink:href="#m320e14ee00" x="225.081874" y="288.281935" style="stroke: #000000"/>
     <use xlink:href="#m320e14ee00" x="229.098269" y="288.281935" style="stroke: #000000"/>
     <use xlink:href="#m320e14ee00" x="233.114664" y="288.281935" style="stroke: #000000"/>
     <use xlink:href="#m320e14ee00" x="237.13106" y="288.281935" style="stroke: #000000"/>
     <use xlink:href="#m320e14ee00" x="241.147455" y="285.390969" style="stroke: #000000"/>
     <use xlink:href="#m320e14ee00" x="245.16385" y="288.281935" style="stroke: #000000"/>
     <use xlink:href="#m320e14ee00" x="249.180245" y="288.281935" style="stroke: #000000"/>
     <use xlink:href="#m320e14ee00" x="253.19664" y="288.281935" style="stroke: #000000"/>
     <use xlink:href="#m320e14ee00" x="257.213035" y="288.281935" style="stroke: #000000"/>
     <use xlink:href="#m320e14ee00" x="261.22943" y="288.281935" style="stroke: #000000"/>
     <use xlink:href="#m320e14ee00" x="265.245825" y="288.281935" style="stroke: #000000"/>
     <use xlink:href="#m320e14ee00" x="269.26222" y="288.281935" style="stroke: #000000"/>
     <use xlink:href="#m320e14ee00" x="273.278615" y="288.281935" style="stroke: #000000"/>
     <use xlink:href="#m320e14ee00" x="277.295011" y="288.281935" style="stroke: #000000"/>
     <use xlink:href="#m320e14ee00" x="281.311406" y="288.281935" style="stroke: #000000"/>
     <use xlink:href="#m320e14ee00" x="285.327801" y="288.281935" style="stroke: #000000"/>
     <use xlink:href="#m320e14ee00" x="289.344196" y="288.281935" style="stroke: #000000"/>
     <use xlink:href="#m320e14ee00" x="293.360591" y="288.281935" style="stroke: #000000"/>
     <use xlink:href="#m320e14ee00" x="297.376986" y="288.281935" style="stroke: #000000"/>
     <use xlink:href="#m320e14ee00" x="301.393381" y="286.836452" style="stroke: #000000"/>
     <use xlink:href="#m320e14ee00" x="305.409776" y="288.281935" style="stroke: #000000"/>
     <use xlink:href="#m320e14ee00" x="309.426171" y="288.281935" style="stroke: #000000"/>
     <use xlink:href="#m320e14ee00" x="313.442566" y="288.281935" style="stroke: #000000"/>
     <use xlink:href="#m320e14ee00" x="317.458962" y="288.281935" style="stroke: #000000"/>
     <use xlink:href="#m320e14ee00" x="321.475357" y="288.281935" style="stroke: #000000"/>
     <use xlink:href="#m320e14ee00" x="325.491752" y="288.281935" style="stroke: #000000"/>
     <use xlink:href="#m320e14ee00" x="329.508147" y="288.281935" style="stroke: #000000"/>
     <use xlink:href="#m320e14ee00" x="333.524542" y="288.281935" style="stroke: #000000"/>
     <use xlink:href="#m320e14ee00" x="337.540937" y="288.281935" style="stroke: #000000"/>
     <use xlink:href="#m320e14ee00" x="341.557332" y="288.281935" style="stroke: #000000"/>
     <use xlink:href="#m320e14ee00" x="345.573727" y="288.281935" style="stroke: #000000"/>
     <use xlink:href="#m320e14ee00" x="349.590122" y="288.281935" style="stroke: #000000"/>
     <use xlink:href="#m320e14ee00" x="353.606518" y="288.281935" style="stroke: #000000"/>
     <use xlink:href="#m320e14ee00" x="357.622913" y="288.281935" style="stroke: #000000"/>
     <use xlink:href="#m320e14ee00" x="361.639308" y="288.281935" style="stroke: #000000"/>
     <use xlink:href="#m320e14ee00" x="365.655703" y="288.281935" style="stroke: #000000"/>
     <use xlink:href="#m320e14ee00" x="369.672098" y="288.281935" style="stroke: #000000"/>
     <use xlink:href="#m320e14ee00" x="373.688493" y="288.281935" style="stroke: #000000"/>
     <use xlink:href="#m320e14ee00" x="377.704888" y="288.281935" style="stroke: #000000"/>
     <use xlink:href="#m320e14ee00" x="381.721283" y="288.281935" style="stroke: #000000"/>
     <use xlink:href="#m320e14ee00" x="385.737678" y="288.281935" style="stroke: #000000"/>
     <use xlink:href="#m320e14ee00" x="389.754073" y="288.281935" style="stroke: #000000"/>
     <use xlink:href="#m320e14ee00" x="393.770469" y="288.281935" style="stroke: #000000"/>
     <use xlink:href="#m320e14ee00" x="397.786864" y="288.281935" style="stroke: #000000"/>
     <use xlink:href="#m320e14ee00" x="401.803259" y="288.281935" style="stroke: #000000"/>
     <use xlink:href="#m320e14ee00" x="405.819654" y="288.281935" style="stroke: #000000"/>
     <use xlink:href="#m320e14ee00" x="409.836049" y="288.281935" style="stroke: #000000"/>
     <use xlink:href="#m320e14ee00" x="413.852444" y="288.281935" style="stroke: #000000"/>
     <use xlink:href="#m320e14ee00" x="417.868839" y="288.281935" style="stroke: #000000"/>
     <use xlink:href="#m320e14ee00" x="421.885234" y="288.281935" style="stroke: #000000"/>
     <use xlink:href="#m320e14ee00" x="425.901629" y="288.281935" style="stroke: #000000"/>
     <use xlink:href="#m320e14ee00" x="429.918024" y="288.281935" style="stroke: #000000"/>
     <use xlink:href="#m320e14ee00" x="433.93442" y="288.281935" style="stroke: #000000"/>
     <use xlink:href="#m320e14ee00" x="437.950815" y="288.281935" style="stroke: #000000"/>
     <use xlink:href="#m320e14ee00" x="441.96721" y="288.281935" style="stroke: #000000"/>
     <use xlink:href="#m320e14ee00" x="445.983605" y="288.281935" style="stroke: #000000"/>
     <use xlink:href="#m320e14ee00" x="450" y="286.836452" style="stroke: #000000"/>
    </g>
   </g>
   <g id="patch_3">
    <path d="M 52.376885 300.76 
L 52.376885 26.24256 
" style="fill: none; stroke: #000000; stroke-width: 0.8; stroke-linejoin: miter; stroke-linecap: square"/>
   </g>
   <g id="patch_4">
    <path d="M 450 300.76 
L 450 26.24256 
" style="fill: none; stroke: #000000; stroke-width: 0.8; stroke-linejoin: miter; stroke-linecap: square"/>
   </g>
   <g id="patch_5">
    <path d="M 52.376885 300.76 
L 450 300.76 
" style="fill: none; stroke: #000000; stroke-width: 0.8; stroke-linejoin: miter; stroke-linecap: square"/>
   </g>
   <g id="patch_6">
    <path d="M 52.376885 26.24256 
L 450 26.24256 
" style="fill: none; stroke: #000000; stroke-width: 0.8; stroke-linejoin: miter; stroke-linecap: square"/>
   </g>
   <g id="text_18">
    <!-- 59.7 $\mathrm{fb^{-1}}$ (13 TeV) -->
    <g transform="translate(369.725 22.779973) scale(0.095 -0.095)">
     <defs>
      <path id="TeXGyreHeros-Regular-35" d="M 3283 1504 
C 3283 2400 2688 2989 1818 2989 
C 1498 2989 1242 2906 979 2714 
L 1158 3885 
L 3046 3885 
L 3046 4442 
L 704 4442 
L 365 2067 
L 883 2067 
C 1146 2381 1363 2490 1715 2490 
C 2323 2490 2707 2099 2707 1427 
C 2707 774 2330 403 1715 403 
C 1222 403 922 653 787 1165 
L 224 1165 
C 410 262 922 -96 1728 -96 
C 2643 -96 3283 544 3283 1504 
z
" transform="scale(0.015625)"/>
      <path id="TeXGyreHeros-Regular-39" d="M 3258 2374 
C 3258 3795 2765 4538 1728 4538 
C 864 4538 243 3923 243 3034 
C 243 2189 819 1619 1638 1619 
C 2067 1619 2381 1773 2675 2125 
C 2669 1018 2310 403 1664 403 
C 1267 403 992 653 902 1088 
L 339 1088 
C 448 346 934 -96 1626 -96 
C 2688 -96 3258 806 3258 2374 
z
M 2643 3046 
C 2643 2490 2253 2118 1702 2118 
C 1158 2118 819 2470 819 3078 
C 819 3654 1203 4045 1722 4045 
C 2246 4045 2643 3635 2643 3046 
z
" transform="scale(0.015625)"/>
      <path id="TeXGyreHeros-Regular-2e" d="M 1222 0 
L 1222 666 
L 557 666 
L 557 0 
L 1222 0 
z
" transform="scale(0.015625)"/>
      <path id="TeXGyreHeros-Regular-37" d="M 3328 3968 
L 3328 4442 
L 294 4442 
L 294 3885 
L 2746 3885 
C 1843 2746 1203 1421 883 0 
L 1485 0 
C 1734 1466 2374 2835 3328 3968 
z
" transform="scale(0.015625)"/>
      <path id="TeXGyreHeros-Regular-20" transform="scale(0.015625)"/>
      <path id="DejaVuSans-66" d="M 2375 4863 
L 2375 4384 
L 1825 4384 
Q 1516 4384 1395 4259 
Q 1275 4134 1275 3809 
L 1275 3500 
L 2222 3500 
L 2222 3053 
L 1275 3053 
L 1275 0 
L 697 0 
L 697 3053 
L 147 3053 
L 147 3500 
L 697 3500 
L 697 3744 
Q 697 4328 969 4595 
Q 1241 4863 1831 4863 
L 2375 4863 
z
" transform="scale(0.015625)"/>
      <path id="DejaVuSans-62" d="M 3116 1747 
Q 3116 2381 2855 2742 
Q 2594 3103 2138 3103 
Q 1681 3103 1420 2742 
Q 1159 2381 1159 1747 
Q 1159 1113 1420 752 
Q 1681 391 2138 391 
Q 2594 391 2855 752 
Q 3116 1113 3116 1747 
z
M 1159 2969 
Q 1341 3281 1617 3432 
Q 1894 3584 2278 3584 
Q 2916 3584 3314 3078 
Q 3713 2572 3713 1747 
Q 3713 922 3314 415 
Q 2916 -91 2278 -91 
Q 1894 -91 1617 61 
Q 1341 213 1159 525 
L 1159 0 
L 581 0 
L 581 4863 
L 1159 4863 
L 1159 2969 
z
" transform="scale(0.015625)"/>
      <path id="DejaVuSans-2212" d="M 678 2272 
L 4684 2272 
L 4684 1741 
L 678 1741 
L 678 2272 
z
" transform="scale(0.015625)"/>
      <path id="TeXGyreHeros-Regular-28" d="M 1862 -1357 
C 1299 -442 986 634 986 1658 
C 986 2675 1299 3757 1862 4666 
L 1510 4666 
C 870 3827 467 2662 467 1658 
C 467 646 870 -518 1510 -1357 
L 1862 -1357 
z
" transform="scale(0.015625)"/>
      <path id="TeXGyreHeros-Regular-31" d="M 2221 0 
L 2221 4538 
L 1850 4538 
C 1651 3840 1523 3744 653 3635 
L 653 3232 
L 1658 3232 
L 1658 0 
L 2221 0 
z
" transform="scale(0.015625)"/>
      <path id="TeXGyreHeros-Regular-33" d="M 3238 1318 
C 3238 1869 3014 2189 2470 2374 
C 2893 2541 3104 2835 3104 3290 
C 3104 4070 2586 4538 1722 4538 
C 806 4538 320 4038 301 3072 
L 864 3072 
C 877 3744 1152 4045 1728 4045 
C 2227 4045 2528 3750 2528 3270 
C 2528 2784 2317 2586 1414 2586 
L 1414 2112 
L 1722 2112 
C 2342 2112 2662 1818 2662 1312 
C 2662 742 2310 403 1722 403 
C 1107 403 806 710 768 1370 
L 205 1370 
C 275 358 774 -96 1702 -96 
C 2637 -96 3238 461 3238 1318 
z
" transform="scale(0.015625)"/>
      <path id="TeXGyreHeros-Regular-54" d="M 3795 4141 
L 3795 4666 
L 134 4666 
L 134 4141 
L 1670 4141 
L 1670 0 
L 2266 0 
L 2266 4141 
L 3795 4141 
z
" transform="scale(0.015625)"/>
      <path id="TeXGyreHeros-Regular-65" d="M 3283 1523 
C 3283 2010 3245 2317 3149 2566 
C 2931 3117 2419 3450 1792 3450 
C 858 3450 256 2758 256 1658 
C 256 557 838 -96 1779 -96 
C 2547 -96 3078 339 3213 1018 
L 2675 1018 
C 2528 576 2227 397 1798 397 
C 1242 397 826 755 813 1523 
L 3283 1523 
z
M 2714 1997 
C 2714 1997 2714 1971 2707 1958 
L 826 1958 
C 870 2554 1248 2957 1786 2957 
C 2310 2957 2714 2522 2714 1997 
z
" transform="scale(0.015625)"/>
      <path id="TeXGyreHeros-Regular-56" d="M 4128 4666 
L 3494 4666 
L 2202 717 
L 832 4666 
L 192 4666 
L 1869 0 
L 2509 0 
L 4128 4666 
z
" transform="scale(0.015625)"/>
      <path id="TeXGyreHeros-Regular-29" d="M 1638 1651 
C 1638 2662 1235 3827 595 4666 
L 243 4666 
C 806 3750 1120 2675 1120 1651 
C 1120 634 806 -448 243 -1357 
L 595 -1357 
C 1235 -518 1638 646 1638 1651 
z
" transform="scale(0.015625)"/>
     </defs>
     <use xlink:href="#TeXGyreHeros-Regular-35" transform="translate(0 0.684375)"/>
     <use xlink:href="#TeXGyreHeros-Regular-39" transform="translate(55.599991 0.684375)"/>
     <use xlink:href="#TeXGyreHeros-Regular-2e" transform="translate(111.199982 0.684375)"/>
     <use xlink:href="#TeXGyreHeros-Regular-37" transform="translate(138.999969 0.684375)"/>
     <use xlink:href="#TeXGyreHeros-Regular-20" transform="translate(194.59996 0.684375)"/>
     <use xlink:href="#DejaVuSans-66" transform="translate(222.399948 0.684375)"/>
     <use xlink:href="#DejaVuSans-62" transform="translate(257.605026 0.684375)"/>
     <use xlink:href="#DejaVuSans-2212" transform="translate(322.03862 38.965625) scale(0.7)"/>
     <use xlink:href="#DejaVuSans-31" transform="translate(380.690964 38.965625) scale(0.7)"/>
     <use xlink:href="#TeXGyreHeros-Regular-20" transform="translate(427.961472 0.684375)"/>
     <use xlink:href="#TeXGyreHeros-Regular-28" transform="translate(455.761459 0.684375)"/>
     <use xlink:href="#TeXGyreHeros-Regular-31" transform="translate(489.061447 0.684375)"/>
     <use xlink:href="#TeXGyreHeros-Regular-33" transform="translate(544.661438 0.684375)"/>
     <use xlink:href="#TeXGyreHeros-Regular-20" transform="translate(600.261429 0.684375)"/>
     <use xlink:href="#TeXGyreHeros-Regular-54" transform="translate(628.061417 0.684375)"/>
     <use xlink:href="#TeXGyreHeros-Regular-65" transform="translate(689.161407 0.684375)"/>
     <use xlink:href="#TeXGyreHeros-Regular-56" transform="translate(744.761398 0.684375)"/>
     <use xlink:href="#TeXGyreHeros-Regular-29" transform="translate(811.461395 0.684375)"/>
    </g>
   </g>
   <g id="text_19">
    <!-- CMS -->
    <g transform="translate(52.376885 23.408966) scale(0.13 -0.13)">
     <defs>
      <path id="TeXGyreHeros-Bold-43" d="M 4384 1594 
L 3450 1594 
C 3392 998 3014 730 2419 730 
C 1677 730 1242 1299 1242 2317 
C 1242 3347 1696 3923 2451 3923 
C 2970 3923 3309 3686 3450 3085 
L 4365 3085 
C 4282 4160 3469 4742 2419 4742 
C 1101 4742 282 3840 282 2330 
C 282 832 1094 -77 2394 -77 
C 3552 -77 4326 525 4384 1594 
z
" transform="scale(0.015625)"/>
      <path id="TeXGyreHeros-Bold-4d" d="M 4966 0 
L 4966 4666 
L 3520 4666 
L 2701 954 
L 1856 4666 
L 422 4666 
L 422 0 
L 1382 0 
L 1382 3635 
L 2221 0 
L 3181 0 
L 4006 3635 
L 4006 0 
L 4966 0 
z
" transform="scale(0.015625)"/>
      <path id="TeXGyreHeros-Bold-53" d="M 4051 1402 
C 4051 2138 3680 2483 2816 2650 
L 2086 2790 
C 1402 2925 1203 3059 1203 3398 
C 1203 3750 1517 3974 2010 3974 
C 2618 3974 2989 3718 2989 3245 
L 3885 3245 
C 3885 4230 3194 4742 2054 4742 
C 934 4742 288 4218 288 3309 
C 288 2579 653 2240 1600 2054 
L 2253 1926 
C 2893 1798 3130 1664 3130 1286 
C 3130 896 2771 691 2189 691 
C 1536 691 1139 966 1139 1466 
L 205 1466 
C 205 467 947 -77 2138 -77 
C 3341 -77 4051 454 4051 1402 
z
" transform="scale(0.015625)"/>
     </defs>
     <use xlink:href="#TeXGyreHeros-Bold-43"/>
     <use xlink:href="#TeXGyreHeros-Bold-4d" x="72.199982"/>
     <use xlink:href="#TeXGyreHeros-Bold-53" x="155.499969"/>
    </g>
   </g>
   <g id="text_20">
    <!-- Work in progress -->
    <g transform="translate(82.711385 22.690285) scale(0.1 -0.1)">
     <defs>
      <path id="TeXGyreHeros-Italic-57" d="M 6618 4666 
L 5952 4666 
L 4269 877 
L 4006 4666 
L 3392 4666 
L 1549 877 
L 1549 4666 
L 813 4666 
L 813 0 
L 1670 0 
L 3526 3789 
L 3789 0 
L 4442 0 
L 6618 4666 
z
" transform="scale(0.015625)"/>
      <path id="TeXGyreHeros-Italic-6f" d="M 3366 2253 
C 3366 2931 2906 3450 2138 3450 
C 934 3450 198 2342 198 1075 
C 198 365 698 -96 1414 -96 
C 2579 -96 3366 922 3366 2253 
z
M 2803 2131 
C 2803 1178 2266 397 1504 397 
C 1050 397 762 691 762 1203 
C 762 2131 1299 2957 2054 2957 
C 2528 2957 2803 2650 2803 2131 
z
" transform="scale(0.015625)"/>
      <path id="TeXGyreHeros-Italic-72" d="M 2355 2886 
L 2470 3430 
C 2387 3443 2336 3450 2266 3450 
C 1894 3450 1606 3283 1210 2829 
L 1318 3354 
L 832 3354 
L 122 0 
L 659 0 
L 1030 1741 
C 1190 2496 1626 2886 2291 2886 
L 2355 2886 
z
" transform="scale(0.015625)"/>
      <path id="TeXGyreHeros-Italic-6b" d="M 2893 0 
L 1997 2195 
L 3418 3354 
L 2726 3354 
L 1005 1958 
L 1581 4666 
L 1043 4666 
L 51 0 
L 589 0 
L 864 1299 
L 1549 1862 
L 2278 0 
L 2893 0 
z
" transform="scale(0.015625)"/>
      <path id="TeXGyreHeros-Italic-20" transform="scale(0.015625)"/>
      <path id="TeXGyreHeros-Italic-69" d="M 659 0 
L 1370 3354 
L 832 3354 
L 122 0 
L 659 0 
z
M 1677 4525 
L 1011 4525 
L 870 3866 
L 1536 3866 
L 1677 4525 
z
" transform="scale(0.015625)"/>
      <path id="TeXGyreHeros-Italic-6e" d="M 3328 2406 
C 3347 2490 3354 2566 3354 2650 
C 3354 3136 3014 3450 2483 3450 
C 1997 3450 1574 3277 1242 2938 
L 1325 3354 
L 838 3354 
L 128 0 
L 666 0 
L 1056 1850 
C 1203 2554 1658 2989 2234 2989 
C 2554 2989 2790 2765 2790 2470 
C 2790 2432 2771 2336 2752 2234 
L 2278 0 
L 2816 0 
L 3328 2406 
z
" transform="scale(0.015625)"/>
      <path id="TeXGyreHeros-Italic-70" d="M 3430 2202 
C 3430 2970 3002 3450 2317 3450 
C 1862 3450 1306 3181 1133 2816 
L 1248 3354 
L 730 3354 
L -275 -1363 
L 262 -1363 
L 653 461 
C 858 70 1120 -96 1574 -96 
C 2669 -96 3430 922 3430 2202 
z
M 2867 2074 
C 2867 1190 2349 397 1626 397 
C 1158 397 858 691 858 1203 
C 858 2112 1402 2957 2106 2957 
C 2586 2957 2867 2624 2867 2074 
z
" transform="scale(0.015625)"/>
      <path id="TeXGyreHeros-Italic-67" d="M 2931 544 
L 3526 3354 
L 3040 3354 
L 2931 2854 
C 2739 3270 2426 3450 2042 3450 
C 922 3450 154 2304 154 1082 
C 154 384 608 -96 1261 -96 
C 1664 -96 2042 77 2362 410 
L 2336 282 
C 2150 -589 1805 -934 1126 -934 
C 691 -934 435 -762 435 -474 
L 435 -384 
L -102 -384 
L -109 -467 
C -115 -518 -115 -557 -115 -582 
C -115 -1075 333 -1395 1018 -1395 
C 1523 -1395 1978 -1242 2266 -966 
C 2586 -659 2758 -269 2931 544 
z
M 2682 2170 
C 2682 1222 2176 365 1414 365 
C 986 365 717 678 717 1184 
C 717 2080 1248 2957 2003 2957 
C 2413 2957 2682 2650 2682 2170 
z
" transform="scale(0.015625)"/>
      <path id="TeXGyreHeros-Italic-65" d="M 3290 1523 
L 3302 1606 
C 3360 1914 3392 2182 3392 2355 
C 3392 2970 2861 3450 2170 3450 
C 1613 3450 1075 3187 755 2758 
C 454 2355 224 1651 224 1133 
C 224 467 717 -96 1498 -96 
C 2266 -96 2912 326 3110 1018 
L 2573 1018 
C 2355 627 2016 397 1587 397 
C 1082 397 787 685 787 1229 
C 781 1338 787 1402 819 1523 
L 3290 1523 
z
M 2816 1984 
L 934 1984 
C 1094 2547 1568 2957 2086 2957 
C 2541 2957 2829 2650 2829 2170 
C 2829 2106 2822 2061 2816 1984 
z
" transform="scale(0.015625)"/>
      <path id="TeXGyreHeros-Italic-73" d="M 2848 1158 
C 2848 1549 2637 1754 2074 1894 
L 1587 2016 
C 1229 2106 1043 2234 1043 2400 
C 1043 2726 1363 2957 1850 2957 
C 2227 2957 2438 2810 2438 2560 
C 2438 2515 2438 2470 2432 2419 
L 2970 2419 
C 3002 2554 3008 2611 3008 2694 
C 3008 3142 2579 3450 1958 3450 
C 1069 3450 480 2938 480 2259 
C 480 1869 704 1677 1363 1510 
L 1837 1389 
C 2240 1286 2285 1146 2285 1011 
C 2285 646 1862 397 1370 397 
C 928 397 678 570 678 890 
C 678 928 685 986 691 1050 
L 122 1050 
C 90 902 83 826 83 723 
C 83 211 531 -96 1274 -96 
C 2227 -96 2848 397 2848 1158 
z
" transform="scale(0.015625)"/>
     </defs>
     <use xlink:href="#TeXGyreHeros-Italic-57"/>
     <use xlink:href="#TeXGyreHeros-Italic-6f" x="94.399994"/>
     <use xlink:href="#TeXGyreHeros-Italic-72" x="149.999985"/>
     <use xlink:href="#TeXGyreHeros-Italic-6b" x="183.299973"/>
     <use xlink:href="#TeXGyreHeros-Italic-20" x="233.299957"/>
     <use xlink:href="#TeXGyreHeros-Italic-69" x="261.099945"/>
     <use xlink:href="#TeXGyreHeros-Italic-6e" x="283.299942"/>
     <use xlink:href="#TeXGyreHeros-Italic-20" x="338.899933"/>
     <use xlink:href="#TeXGyreHeros-Italic-70" x="366.699921"/>
     <use xlink:href="#TeXGyreHeros-Italic-72" x="422.299911"/>
     <use xlink:href="#TeXGyreHeros-Italic-6f" x="455.599899"/>
     <use xlink:href="#TeXGyreHeros-Italic-67" x="511.19989"/>
     <use xlink:href="#TeXGyreHeros-Italic-72" x="566.799881"/>
     <use xlink:href="#TeXGyreHeros-Italic-65" x="600.099869"/>
     <use xlink:href="#TeXGyreHeros-Italic-73" x="655.69986"/>
     <use xlink:href="#TeXGyreHeros-Italic-73" x="705.699844"/>
    </g>
   </g>
   <g id="legend_1">
    <g id="patch_7">
     <path d="M 387.123437 48.920685 
L 443 48.920685 
Q 445 48.920685 445 46.920685 
L 445 33.24256 
Q 445 31.24256 443 31.24256 
L 387.123437 31.24256 
Q 385.123437 31.24256 385.123437 33.24256 
L 385.123437 46.920685 
Q 385.123437 48.920685 387.123437 48.920685 
z
" style="fill: #ffffff; opacity: 0.8; stroke: #cccccc; stroke-linejoin: miter"/>
    </g>
    <g id="LineCollection_2">
     <path d="M 399.123437 44.340997 
L 399.123437 34.340997 
" style="fill: none; stroke: #000000; stroke-width: 1.5"/>
    </g>
    <g id="line2d_17"/>
    <g id="line2d_18">
     <g>
      <use xlink:href="#m320e14ee00" x="399.123437" y="39.340997" style="stroke: #000000"/>
     </g>
    </g>
    <g id="text_21">
     <!-- Data -->
     <g transform="translate(417.123437 42.840997) scale(0.1 -0.1)">
      <defs>
       <path id="DejaVuSans-44" d="M 1259 4147 
L 1259 519 
L 2022 519 
Q 2988 519 3436 956 
Q 3884 1394 3884 2338 
Q 3884 3275 3436 3711 
Q 2988 4147 2022 4147 
L 1259 4147 
z
M 628 4666 
L 1925 4666 
Q 3281 4666 3915 4102 
Q 4550 3538 4550 2338 
Q 4550 1131 3912 565 
Q 3275 0 1925 0 
L 628 0 
L 628 4666 
z
" transform="scale(0.015625)"/>
       <path id="DejaVuSans-61" d="M 2194 1759 
Q 1497 1759 1228 1600 
Q 959 1441 959 1056 
Q 959 750 1161 570 
Q 1363 391 1709 391 
Q 2188 391 2477 730 
Q 2766 1069 2766 1631 
L 2766 1759 
L 2194 1759 
z
M 3341 1997 
L 3341 0 
L 2766 0 
L 2766 531 
Q 2569 213 2275 61 
Q 1981 -91 1556 -91 
Q 1019 -91 701 211 
Q 384 513 384 1019 
Q 384 1609 779 1909 
Q 1175 2209 1959 2209 
L 2766 2209 
L 2766 2266 
Q 2766 2663 2505 2880 
Q 2244 3097 1772 3097 
Q 1472 3097 1187 3025 
Q 903 2953 641 2809 
L 641 3341 
Q 956 3463 1253 3523 
Q 1550 3584 1831 3584 
Q 2591 3584 2966 3190 
Q 3341 2797 3341 1997 
z
" transform="scale(0.015625)"/>
      </defs>
      <use xlink:href="#DejaVuSans-44"/>
      <use xlink:href="#DejaVuSans-61" x="77.001953"/>
      <use xlink:href="#DejaVuSans-74" x="138.28125"/>
      <use xlink:href="#DejaVuSans-61" x="177.490234"/>
     </g>
    </g>
   </g>
  </g>
 </g>
 <defs>
  <clipPath id="pb42756f004">
   <rect x="52.376885" y="26.24256" width="397.623115" height="274.51744"/>
  </clipPath>
 </defs>
</svg>
